<?xml version="1.0" standalone="no"?>
<!DOCTYPE svg PUBLIC "-//W3C//DTD SVG 20010904//EN"
 "http://www.w3.org/TR/2001/REC-SVG-20010904/DTD/svg10.dtd">
<svg version="1.0" xmlns="http://www.w3.org/2000/svg"
 width="400.000000pt" height="400.000000pt" viewBox="0 0 400.000000 400.000000"
 preserveAspectRatio="xMidYMid meet">
<metadata>
Created by potrace 1.11, written by Peter Selinger 2001-2013
</metadata>
<g transform="translate(0.000000,400.000000) scale(0.100000,-0.100000)"
fill="#000000" stroke="none">
<path d="M855 3964 c-16 -2 -73 -9 -125 -15 -190 -21 -418 -72 -617 -136
l-113 -36 0 -1191 c1 -1226 1 -1226 37 -1226 5 0 17 -8 26 -18 9 -9 46 -33 83
-52 61 -31 76 -35 148 -35 71 0 90 4 149 32 38 18 82 44 99 58 16 14 34 25 39
25 12 0 4 -83 -11 -110 -13 -24 -98 -65 -180 -86 -115 -29 -262 -3 -347 62
-17 13 -34 24 -37 24 -3 0 -6 -283 -6 -630 l0 -630 124 0 c124 0 124 0 144 27
l20 28 -5 -28 c-4 -21 -2 -27 12 -27 10 0 24 8 31 18 13 16 13 16 14 0 0 -21
26 -24 33 -5 4 9 6 9 6 0 1 -10 66 -13 292 -13 l291 0 -4 30 c-1 16 2 30 7 30
21 1 85 -34 85 -47 0 -7 7 -13 15 -13 18 0 19 29 5 115 -5 33 -12 84 -14 114
l-5 54 32 -30 c60 -56 114 -87 265 -154 25 -11 32 -20 32 -41 0 -57 2 -58 132
-58 99 0 123 3 132 16 11 14 24 15 102 6 91 -11 213 -9 303 3 44 6 50 5 45 -9
-6 -14 23 -16 284 -16 l290 0 9 27 10 28 25 -28 25 -27 632 0 631 0 0 120 0
120 -37 -16 c-191 -84 -283 -107 -423 -108 -179 -1 -302 53 -425 185 -131 140
-127 290 12 549 39 73 220 317 318 430 79 91 175 180 225 208 l55 31 32 -20
31 -19 -192 -193 c-291 -291 -424 -484 -457 -663 -18 -99 30 -212 140 -327 66
-68 128 -95 241 -104 108 -8 182 14 384 118 l91 47 3 531 2 530 -52 41 c-72
54 -72 55 -88 58 -8 2 -28 14 -45 26 -78 59 -325 166 -452 196 -29 6 -53 14
-53 16 0 1 6 27 14 56 7 29 14 81 15 114 2 56 -1 65 -32 106 l-34 44 31 -1
c23 -1 34 -8 44 -28 11 -23 20 -27 53 -27 21 0 39 -4 39 -10 0 -5 18 -10 40
-10 34 0 40 3 40 22 0 21 2 21 120 15 66 -4 174 -4 240 0 l120 6 0 167 0 166
-67 100 c-143 209 -263 352 -455 539 -191 187 -308 282 -513 416 -408 267
-859 435 -1385 515 -100 15 -646 29 -725 18z m1060 -1408 c77 -14 164 -33 192
-42 l53 -17 -33 -25 c-53 -40 -96 -54 -144 -47 -50 7 -54 -1 -15 -39 36 -33
89 -43 128 -23 16 8 37 13 46 12 10 -2 16 2 15 8 -1 6 7 15 18 22 11 6 36 21
55 33 38 24 61 27 88 13 9 -5 82 -41 162 -80 80 -40 190 -96 245 -127 55 -30
141 -76 192 -101 67 -33 95 -53 102 -72 16 -40 41 -146 41 -172 0 -13 9 -53
20 -89 29 -96 43 -219 29 -261 -7 -19 -38 -72 -69 -119 -76 -112 -83 -128
-114 -245 -34 -129 -83 -229 -143 -291 -100 -103 -204 -183 -301 -230 -74 -37
-111 -62 -155 -108 -32 -34 -62 -60 -68 -58 -5 1 -8 -4 -7 -10 2 -7 -35 -31
-82 -54 -180 -88 -289 -110 -488 -100 -172 9 -263 27 -368 73 -100 43 -162 94
-191 155 -33 70 -79 169 -101 220 -13 28 -37 57 -61 74 -53 39 -79 79 -107
171 -29 91 -41 148 -50 235 -3 35 -10 70 -15 79 -12 23 -59 206 -65 254 -6 43
-34 146 -65 238 -22 66 -24 143 -5 302 11 92 18 119 45 165 17 30 44 79 58
107 25 48 32 54 87 73 97 34 322 93 391 104 17 2 145 3 285 1 219 -3 275 -7
395 -29z m1722 -148 c-3 -7 -5 -2 -5 12 0 14 2 19 5 13 2 -7 2 -19 0 -25z
m-3009 -161 c-14 -74 -32 -91 -60 -57 -19 23 -23 57 -10 76 8 13 75 55 79 50
2 -2 -2 -33 -9 -69z m2669 41 c-3 -8 -6 -5 -6 6 -1 11 2 17 5 13 3 -3 4 -12 1
-19z m138 -8 c3 -6 -1 -7 -9 -4 -18 7 -21 14 -7 14 6 0 13 -4 16 -10z m-148
-82 c-3 -8 -6 -5 -6 6 -1 11 2 17 5 13 3 -3 4 -12 1 -19z m-10 -40 c-3 -8 -6
-5 -6 6 -1 11 2 17 5 13 3 -3 4 -12 1 -19z m-2 -66 c-3 -3 -11 0 -18 7 -9 10
-8 11 6 5 10 -3 15 -9 12 -12z m-49 -75 c39 -47 24 -105 -37 -141 l-32 -19 7
89 c4 49 10 98 13 108 5 20 6 20 19 0 8 -10 21 -27 30 -37z m-2636 -944 c0
-19 -3 -24 -10 -17 -6 6 -8 18 -4 27 9 24 14 21 14 -10z m-11 -137 c13 -13 21
-31 19 -40 -2 -14 -7 -12 -30 8 -26 22 -38 56 -20 56 5 0 19 -11 31 -24z m-31
-121 c13 -13 22 -31 20 -40 -2 -12 -8 -11 -30 9 -16 13 -28 31 -28 40 0 22 11
20 38 -9z m-5 -161 c-4 -12 -8 -12 -22 -2 -35 28 -43 39 -37 54 4 12 11 10 35
-12 17 -15 27 -32 24 -40z m-43 -27 c0 -5 -7 -4 -15 3 -8 7 -15 20 -15 29 1
13 3 13 15 -3 8 -11 15 -24 15 -29z m-9 -72 c24 -32 25 -38 15 -75 l-10 -41
-32 34 c-31 32 -32 36 -22 76 6 22 13 41 17 41 3 -1 18 -16 32 -35z m307 -176
c-3 -20 -3 -20 -26 1 -22 21 -22 23 -5 35 15 11 19 11 26 -1 5 -8 7 -24 5 -35z
m1976 22 c36 -38 25 -60 -14 -29 -27 21 -41 58 -22 58 5 0 21 -13 36 -29z
m-2334 -11 c43 -43 6 -130 -55 -130 -36 0 -75 42 -75 80 0 23 7 35 33 50 41
25 72 25 97 0z m540 -106 c22 -15 40 -32 40 -38 0 -10 -59 -46 -75 -46 -15 0
-2 30 16 35 16 5 18 10 8 21 -6 8 -18 14 -25 14 -8 0 -14 9 -14 20 0 26 2 25
50 -6z m1799 -73 c0 -16 -3 -20 -6 -11 -4 8 -17 23 -30 33 -12 10 -23 28 -23
40 0 19 2 19 30 -8 19 -18 30 -38 29 -54z m-215 38 c-3 -5 -14 -9 -26 -9 -17
0 -18 3 -8 14 12 15 44 10 34 -5z m196 -165 c0 -32 -11 -50 -24 -37 -3 3 -1
12 6 20 9 11 5 20 -15 41 -15 16 -27 37 -27 47 0 16 4 15 30 -10 21 -20 30
-38 30 -61z m-1919 54 c3 -53 7 -88 13 -104 5 -12 2 -15 -11 -9 -10 4 -25 9
-35 12 -10 3 -18 21 -23 51 -6 38 -4 48 11 59 27 19 44 16 45 -9z m1599 -38
c14 -26 -8 -50 -46 -50 -22 0 -25 2 -14 15 7 8 19 15 27 15 8 0 11 5 8 10 -6
9 1 30 10 30 2 0 9 -9 15 -20z m-225 -60 c-21 -23 -35 -26 -35 -6 0 13 15 21
44 25 5 0 1 -8 -9 -19z"/>
<path d="M1131 2468 c-30 -6 -59 -14 -65 -19 -6 -5 -23 -18 -38 -30 -16 -11
-28 -24 -28 -29 0 -16 33 -20 54 -7 24 15 98 22 201 19 61 -1 81 -7 158 -47
48 -25 92 -45 97 -45 18 0 10 26 -15 50 -14 13 -23 30 -20 38 2 7 0 10 -5 7
-5 -3 -29 5 -52 19 -50 29 -151 57 -199 55 -19 -1 -58 -6 -88 -11z"/>
<path d="M1150 2353 c-13 -3 -45 -19 -70 -36 -25 -18 -46 -32 -48 -33 -2 -1
-10 -31 -18 -65 -23 -97 0 -153 26 -66 19 64 48 115 73 129 67 36 235 22 326
-27 54 -30 71 -59 71 -126 0 -49 -21 -140 -31 -133 -4 2 -27 -6 -50 -18 -91
-47 -226 -34 -329 32 -59 39 -60 39 -46 12 18 -35 81 -84 130 -101 21 -7 71
-14 110 -14 71 -1 98 7 160 48 l29 20 -18 -29 c-11 -17 -45 -41 -80 -57 -94
-45 -212 -39 -288 14 -16 10 -30 17 -33 14 -3 -3 5 -27 18 -53 32 -67 65 -84
171 -87 96 -4 112 -11 129 -68 28 -94 -34 -163 -147 -165 -51 -1 -66 3 -99 27
-80 58 -85 33 -20 -100 63 -129 93 -153 216 -172 40 -6 82 -17 94 -25 12 -7
45 -20 75 -29 30 -9 65 -22 78 -29 17 -10 35 -11 68 -4 28 7 59 6 82 0 56 -14
327 -15 423 -2 64 9 106 23 183 61 55 27 105 49 110 49 14 0 129 118 144 147
6 12 11 34 11 49 0 26 -1 26 -19 10 -17 -16 -19 -16 -23 2 -7 26 -40 23 -72
-5 -14 -13 -32 -20 -40 -17 -8 3 -17 1 -21 -5 -3 -7 0 -8 9 -5 32 12 15 -5
-29 -30 -136 -75 -233 -92 -315 -55 -94 43 -125 92 -115 188 5 55 3 72 -14
101 -45 78 -62 122 -59 148 3 27 4 26 25 -13 33 -62 111 -134 182 -168 129
-61 304 -36 411 60 26 23 51 39 55 35 5 -4 5 -1 1 6 -5 8 -1 21 8 30 30 34 76
162 58 162 -5 0 -16 -16 -25 -35 -29 -60 -93 -120 -172 -160 -156 -80 -337
-55 -468 64 -59 53 -69 76 -57 123 7 24 31 67 53 97 23 30 47 65 52 78 19 45
163 89 315 97 59 3 79 0 95 -13 11 -9 38 -23 60 -30 48 -15 118 -43 125 -51 3
-3 25 -16 50 -29 25 -13 64 -42 87 -64 24 -23 46 -38 49 -34 15 14 -22 70 -80
121 -92 82 -108 93 -184 129 -63 31 -82 35 -191 41 -130 7 -271 -6 -330 -30
-68 -28 -200 -54 -276 -54 -71 0 -81 3 -143 39 -69 40 -167 82 -237 100 -39
11 -166 13 -215 4z m502 -215 c32 -17 56 -21 104 -20 l63 3 9 -35 c7 -24 4
-85 -10 -207 l-19 -172 30 -24 c58 -45 26 -128 -46 -121 -18 1 -34 0 -37 -3
-3 -3 -19 -42 -35 -88 -43 -119 -88 -149 -147 -97 -24 20 -29 34 -35 92 -4 38
-12 97 -18 132 -5 35 -7 115 -4 180 6 118 6 117 59 214 7 11 15 53 19 94 4 41
11 74 16 74 4 0 27 -10 51 -22z"/>
<path d="M1234 2231 c-54 -33 -74 -67 -74 -129 0 -50 3 -58 39 -93 36 -37 42
-39 98 -39 67 0 102 19 128 70 63 122 -77 261 -191 191z m141 -91 c0 -18 -6
-26 -23 -28 -24 -4 -38 18 -28 44 3 9 15 14 28 12 17 -2 23 -10 23 -28z"/>
<path d="M2166 2130 c-63 -41 -84 -135 -46 -198 72 -119 248 -84 276 55 9 44
-26 117 -68 143 -44 27 -122 27 -162 0z m152 -52 c7 -7 12 -23 12 -36 0 -20
-4 -23 -27 -20 -21 2 -29 9 -31 27 -5 34 23 52 46 29z m-108 -2 c0 -2 -8 -10
-17 -17 -16 -13 -17 -12 -4 4 13 16 21 21 21 13z m10 -132 c0 -2 -9 0 -20 6
-11 6 -20 13 -20 16 0 2 9 0 20 -6 11 -6 20 -13 20 -16z"/>
<path d="M1992 2030 c0 -14 2 -19 5 -12 2 6 2 18 0 25 -3 6 -5 1 -5 -13z"/>
<path d="M2512 2030 c0 -14 2 -19 5 -12 2 6 2 18 0 25 -3 6 -5 1 -5 -13z"/>
<path d="M2000 1926 c0 -21 45 -71 86 -97 50 -30 199 -39 264 -14 25 9 59 20
76 26 31 9 82 54 72 64 -2 3 -51 -11 -107 -30 -56 -19 -121 -35 -144 -35 -64
0 -140 26 -192 65 -51 39 -55 41 -55 21z"/>
<path d="M2880 1740 c0 -5 5 -10 10 -10 6 0 10 5 10 10 0 6 -4 10 -10 10 -5 0
-10 -4 -10 -10z"/>
<path d="M2535 1323 c-83 -57 -206 -115 -275 -129 -207 -43 -234 -46 -405 -41
-192 6 -285 13 -332 28 -17 6 -44 12 -59 15 -37 7 -46 13 -37 27 4 8 1 7 -9
-1 -14 -11 -25 -10 -70 9 -29 13 -66 32 -81 43 -28 20 -29 20 -42 2 -26 -34
-38 -122 -26 -187 12 -70 72 -190 108 -216 14 -10 37 -27 52 -39 27 -22 145
-80 220 -108 61 -23 216 -31 341 -17 177 20 184 22 214 37 16 7 36 14 45 14 9
0 52 16 95 35 44 19 84 31 89 28 6 -3 7 -1 3 5 -3 5 9 20 28 31 79 50 145 152
166 261 6 30 18 75 25 100 18 56 23 132 10 135 -5 2 -32 -13 -60 -32z m-75
-158 c18 -21 7 -39 -34 -59 -19 -9 -38 -21 -41 -26 -13 -20 -25 -9 -25 23 0
45 25 77 59 77 16 0 34 -7 41 -15z m-1027 -16 c8 -11 12 -30 10 -42 l-6 -22
22 23 c12 12 29 22 38 22 25 0 53 -30 53 -58 0 -24 0 -24 29 7 24 26 36 31 76
31 59 0 83 -13 101 -55 24 -58 21 -62 -48 -57 -35 2 -67 8 -73 13 -5 5 -21 9
-35 9 -15 0 -30 3 -34 8 -4 4 -11 7 -14 8 -46 5 -95 30 -131 69 -22 24 -41 49
-41 55 0 18 38 11 53 -11z m889 -26 c34 -31 23 -57 -35 -81 -29 -12 -58 -22
-65 -22 -24 0 -6 95 21 112 20 13 60 9 79 -9z m-175 -23 c33 -12 57 -47 51
-75 -2 -13 -19 -22 -58 -31 -87 -21 -100 -19 -100 14 0 38 21 74 50 89 14 7
25 13 26 13 1 0 15 -5 31 -10z m-152 -35 c16 -15 25 -36 25 -55 l0 -30 -101 0
-102 0 6 38 c9 51 38 72 99 72 39 0 54 -5 73 -25z m-257 -265 c63 -6 145 -9
183 -9 131 2 80 -8 -73 -14 -141 -6 -234 0 -282 19 -19 7 -19 8 0 14 10 4 28
6 39 3 11 -2 71 -8 133 -13z"/>
<path d="M997 1304 c-8 -8 1 -24 14 -24 5 0 9 7 9 15 0 15 -12 20 -23 9z"/>
<path d="M3296 2058 c3 -4 12 -8 20 -8 8 0 12 -4 9 -10 -3 -5 -2 -10 4 -10 6
0 15 -15 20 -32 5 -18 10 -26 10 -17 2 33 -26 83 -47 84 -12 1 -19 -2 -16 -7z"/>
</g>
</svg>
